<svg width="200" height="auto" viewBox="0 0 326 121" fill="none" xmlns="http://www.w3.org/2000/svg">
<g clip-path="url(#clip0_48_304)">
<path d="M42.4516 1.16969C43.3099 0.410935 44.3177 0.00616455 45.3484 0.00616455C46.3792 0.00616455 47.3869 0.410935 48.2453 1.16969C52.7129 4.90304 56.9985 9.00843 61.0763 13.4613C61.0763 13.4613 62.1872 14.4847 62.2176 12.7554C62.1092 10.5141 62.2098 8.26354 62.5171 6.05506C62.6838 5.48167 62.9759 4.98787 63.3558 4.63739C63.7356 4.28691 64.1857 4.09583 64.648 4.08881C64.648 4.08881 69.6871 4.42156 72.8873 4.99127C74.3168 5.24335 75.4315 6.76594 75.5832 8.67169C75.5832 8.67169 77.6421 26.9225 78.1046 33.5019C78.1046 33.5019 78.5028 36.8496 82.1504 42.5265C82.1504 42.5265 89.5555 56.3154 90.4162 58.9573C90.4162 58.9573 92.1376 63.7267 88.4331 64.372C88.4331 64.372 81.6726 65.2795 81.0204 65.4812C80.5836 65.5521 80.1848 65.8467 79.9087 66.3023C79.6326 66.7579 79.5009 67.3387 79.5417 67.9213C79.5417 67.9213 79.1853 99.6637 77.4373 114.91C77.4373 114.91 76.9785 120.96 74.4722 120.824C74.4722 120.824 67.5221 120.526 65.9069 120.587C65.9069 120.587 65.213 120.587 65.3154 119.346C65.3154 119.346 68.8568 69.8523 66.4566 44.8305C66.4566 44.8305 66.3505 41.6039 64.5001 40.8879C64.5001 40.8879 62.8129 39.9804 61.1976 42.8592C54.1872 55.9062 50.3499 71.4949 50.2018 87.5284C50.2018 87.5284 50.0122 95.4085 50.9146 97.3748C50.9146 97.3748 51.4758 98.7562 54.3536 99.0688L57.9936 99.7242C57.9936 99.7242 58.661 99.7242 58.6003 100.899C58.6003 100.899 57.7737 115.419 57.5386 118.005C57.5248 118.593 57.4337 119.173 57.2694 119.719C57.2694 119.719 57.1367 120.214 55.9954 120.153C55.9954 120.153 39.9339 120.002 38.1253 120.153C38.1253 120.153 37.367 120.153 37.2077 119.624C37.0447 119.089 36.093 100.884 36.1233 98.3024C36.1095 98.0408 36.1563 97.7798 36.2573 97.5545C36.3583 97.3292 36.5086 97.1504 36.6883 97.042C37.9132 96.0129 38.9486 94.6309 39.7177 92.9982C40.4869 91.3654 40.9703 89.5237 41.1321 87.6091C41.3293 84.8429 41.3596 82.0767 41.2231 79.3105C41.2231 79.3105 41.8146 51.4704 41.9625 46.9934C41.9625 46.9934 42.08 45.4809 40.5975 45.2036C40.242 45.093 39.8681 45.1742 39.5576 45.4293C39.2471 45.6844 39.0252 46.0927 38.9405 46.5649V46.7161C38.9405 46.8774 37.9016 65.0829 38.095 72.3328C38.095 72.3328 38.4514 77.0821 35.9792 77.1778C35.9792 77.1778 33.5753 77.6568 33.4578 73.6991C33.4578 73.6991 33.636 55.8415 34.2275 47.0186C34.2305 46.5309 34.0972 46.0592 33.8534 45.6949C33.6095 45.3306 33.2726 45.0998 32.908 45.0473C32.5306 44.978 32.1477 45.1049 31.839 45.4017C31.5303 45.6985 31.3197 46.1423 31.251 46.6405C31.2449 46.6923 31.2449 46.745 31.251 46.7968C31.251 46.7968 30.2121 63.888 30.4055 72.9076C30.4055 72.9076 30.7012 77.2837 28.0774 77.1224C28.0774 77.1224 25.8858 77.4551 25.7645 73.5731C25.7645 73.5731 26.3598 49.121 26.5228 47.2354C26.5058 46.767 26.3635 46.3222 26.1216 45.981C25.8796 45.6399 25.5539 45.425 25.2033 45.375H25.0554C24.6847 45.3329 24.3156 45.4781 24.0218 45.7819C23.728 46.0856 23.5312 46.5254 23.4705 47.0136V47.19C23.4705 47.19 22.4923 76.4317 22.625 85.0176C22.625 85.0176 22.5378 93.8456 27.4404 97.4302C27.4404 97.4302 28.1684 97.9848 28.1836 98.8268C28.1836 98.8268 28.7334 114.335 29.2339 119.341C29.2339 119.341 29.4121 120.541 28.612 120.541L16.2701 121C15.6233 120.995 15.0022 120.662 14.5337 120.069C14.0652 119.476 13.7844 118.667 13.7487 117.809C12.1511 101.377 11.3898 84.8217 11.4699 68.2541C11.513 67.6414 11.386 67.0289 11.1129 66.532C10.8398 66.0352 10.4395 65.6883 9.98735 65.5568C9.98735 65.5568 3.67422 64.7854 2.14618 64.2762C1.75377 64.1401 1.39043 63.8848 1.0847 63.5305C0.778968 63.1762 0.539167 62.7325 0.384124 62.2342C0.229082 61.7359 0.163019 61.1966 0.191122 60.6587C0.219226 60.1207 0.340732 59.5987 0.546099 59.1337C10.8029 35.6081 25.1762 15.7233 42.4516 1.16969Z" fill="#408A67"/>
</g>
<path d="M134.214 73.6489H127.112C127.017 72.9197 126.823 72.2616 126.529 71.6744C126.236 71.0873 125.848 70.5854 125.365 70.1688C124.882 69.7521 124.309 69.4349 123.646 69.2171C122.992 68.9898 122.268 68.8761 121.473 68.8761C120.062 68.8761 118.845 69.2218 117.822 69.9131C116.809 70.6044 116.027 71.6034 115.478 72.9102C114.938 74.2171 114.669 75.7985 114.669 77.6546C114.669 79.5864 114.943 81.2057 115.492 82.5125C116.051 83.8099 116.832 84.79 117.836 85.4529C118.849 86.1063 120.047 86.433 121.43 86.433C122.206 86.433 122.912 86.3335 123.546 86.1347C124.19 85.9358 124.754 85.647 125.237 85.2682C125.729 84.8799 126.132 84.4112 126.444 83.8619C126.766 83.3032 126.989 82.6735 127.112 81.9727L134.214 82.0154C134.091 83.3032 133.717 84.5722 133.092 85.8222C132.476 87.0722 131.629 88.2133 130.549 89.2455C129.47 90.2682 128.153 91.0826 126.6 91.6886C125.057 92.2947 123.286 92.5977 121.288 92.5977C118.655 92.5977 116.297 92.0201 114.214 90.8648C112.14 89.7 110.502 88.0049 109.299 85.7796C108.097 83.5542 107.495 80.8458 107.495 77.6546C107.495 74.4538 108.106 71.7407 109.328 69.5154C110.549 67.29 112.202 65.5996 114.285 64.4443C116.368 63.289 118.703 62.7114 121.288 62.7114C123.049 62.7114 124.678 62.9576 126.174 63.45C127.67 63.933 128.987 64.6432 130.123 65.5807C131.259 66.5087 132.183 67.6498 132.893 69.004C133.603 70.3582 134.044 71.9065 134.214 73.6489ZM143.788 92.2H136.231L146.046 63.1091H155.407L165.223 92.2H157.666L150.833 70.4386H150.606L143.788 92.2ZM142.779 80.7511H158.575V86.0921H142.779V80.7511ZM183.181 71.8307C183.086 70.789 182.665 69.9794 181.916 69.4017C181.178 68.8146 180.122 68.521 178.749 68.521C177.84 68.521 177.082 68.6394 176.476 68.8761C175.87 69.1129 175.415 69.4396 175.112 69.8563C174.809 70.2635 174.653 70.7322 174.644 71.2625C174.625 71.6981 174.71 72.0816 174.899 72.4131C175.098 72.7445 175.382 73.0381 175.752 73.2938C176.13 73.54 176.585 73.7578 177.115 73.9472C177.646 74.1366 178.242 74.3023 178.905 74.4443L181.405 75.0125C182.844 75.325 184.113 75.7417 185.212 76.2625C186.32 76.7833 187.248 77.4036 187.996 78.1233C188.754 78.843 189.326 79.6716 189.715 80.6091C190.103 81.5466 190.302 82.5977 190.311 83.7625C190.302 85.5996 189.838 87.1763 188.919 88.4926C188.001 89.8089 186.68 90.8174 184.956 91.5182C183.242 92.219 181.173 92.5693 178.749 92.5693C176.315 92.5693 174.194 92.2047 172.385 91.4756C170.576 90.7464 169.17 89.6385 168.166 88.1517C167.163 86.665 166.647 84.7852 166.618 82.5125H173.351C173.408 83.45 173.659 84.2313 174.104 84.8563C174.549 85.4813 175.16 85.9547 175.936 86.2767C176.722 86.5987 177.631 86.7597 178.664 86.7597C179.611 86.7597 180.415 86.6318 181.078 86.3761C181.751 86.1205 182.267 85.7654 182.627 85.3108C182.986 84.8563 183.171 84.3354 183.181 83.7483C183.171 83.1991 183.001 82.7303 182.669 82.3421C182.338 81.9443 181.826 81.6034 181.135 81.3193C180.453 81.0258 179.582 80.7559 178.522 80.5097L175.482 79.7994C172.963 79.2218 170.979 78.289 169.53 77.0011C168.081 75.7038 167.361 73.9519 167.371 71.7455C167.361 69.9462 167.844 68.3695 168.82 67.0154C169.795 65.6612 171.145 64.6053 172.868 63.8477C174.592 63.0902 176.557 62.7114 178.763 62.7114C181.017 62.7114 182.972 63.0949 184.629 63.8619C186.296 64.6195 187.589 65.6849 188.507 67.058C189.426 68.4311 189.895 70.022 189.914 71.8307H183.181ZM193.862 92.2V63.1091H214.147V68.8193H200.894V74.7852H213.11V80.5097H200.894V86.4898H214.147V92.2H193.862ZM218.55 92.2V63.1091H230.567C232.745 63.1091 234.625 63.5021 236.206 64.2881C237.797 65.0646 239.023 66.182 239.885 67.6404C240.747 69.0892 241.178 70.808 241.178 72.7966C241.178 74.8136 240.737 76.5277 239.857 77.9386C238.976 79.3402 237.726 80.4102 236.107 81.1489C234.487 81.878 232.57 82.2426 230.354 82.2426H222.754V76.7029H229.047C230.108 76.7029 230.993 76.5655 231.703 76.2909C232.423 76.0068 232.968 75.5807 233.337 75.0125C233.706 74.4349 233.891 73.6962 233.891 72.7966C233.891 71.897 233.706 71.1536 233.337 70.5665C232.968 69.9699 232.423 69.5248 231.703 69.2313C230.984 68.9282 230.098 68.7767 229.047 68.7767H225.581V92.2H218.55ZM234.928 78.9046L242.172 92.2H234.502L227.399 78.9046H234.928ZM252.066 63.1091V92.2H245.034V63.1091H252.066ZM255.528 68.8193V63.1091H280.116V68.8193H271.295V92.2H264.363V68.8193H255.528ZM309.679 77.6546C309.679 80.8553 309.064 83.5684 307.833 85.7938C306.602 88.0191 304.935 89.7095 302.833 90.8648C300.74 92.0201 298.391 92.5977 295.787 92.5977C293.174 92.5977 290.82 92.0154 288.727 90.8506C286.635 89.6858 284.973 87.9955 283.742 85.7796C282.52 83.5542 281.909 80.8458 281.909 77.6546C281.909 74.4538 282.52 71.7407 283.742 69.5154C284.973 67.29 286.635 65.5996 288.727 64.4443C290.82 63.289 293.174 62.7114 295.787 62.7114C298.391 62.7114 300.74 63.289 302.833 64.4443C304.935 65.5996 306.602 67.29 307.833 69.5154C309.064 71.7407 309.679 74.4538 309.679 77.6546ZM302.492 77.6546C302.492 75.7606 302.222 74.1602 301.682 72.8534C301.152 71.5466 300.385 70.557 299.381 69.8847C298.387 69.2123 297.189 68.8761 295.787 68.8761C294.395 68.8761 293.197 69.2123 292.193 69.8847C291.19 70.557 290.418 71.5466 289.878 72.8534C289.348 74.1602 289.083 75.7606 289.083 77.6546C289.083 79.5485 289.348 81.1489 289.878 82.4557C290.418 83.7625 291.19 84.7521 292.193 85.4244C293.197 86.0968 294.395 86.433 295.787 86.433C297.189 86.433 298.387 86.0968 299.381 85.4244C300.385 84.7521 301.152 83.7625 301.682 82.4557C302.222 81.1489 302.492 79.5485 302.492 77.6546Z" fill="black"/>
<defs>
<clipPath id="clip0_48_304">
<rect width="91" height="121" fill="white"/>
</clipPath>
</defs>
</svg>
